<svg width="29" height="30" viewBox="0 0 29 30" fill="none" xmlns="http://www.w3.org/2000/svg">
<path d="M15.7717 3.30935C22.2454 3.68509 27.1785 9.37613 26.7931 16.0182C26.4077 22.659 19.7171 27.9198 12.5787 27.2613L12.5767 27.2621L12.5455 27.2603C12.5428 27.2601 12.5395 27.259 12.5377 27.2589L12.5299 27.2584L12.5261 27.2572C6.15535 26.7744 1.06938 21.2244 1.45084 14.6509C1.8329 8.06852 7.55459 2.93082 13.9515 3.20467L15.7717 3.30935Z" fill="#D4EDF4" stroke="#D4EDF4" stroke-width="0.10584"/>
<path d="M12.1463 3.42884C18.5369 2.02555 24.855 6.06852 26.2583 12.4591C26.3272 12.7727 26.3829 13.0861 26.4259 13.3988C27.2591 19.4579 23.305 25.2366 17.2281 26.5711C13.0947 27.4787 8.99167 26.108 6.22916 23.2973L5.2185 22.1245C4.22536 20.8063 3.49322 19.2583 3.11608 17.5408C2.58897 15.1404 2.83029 12.7502 3.67582 10.6268C4.95072 7.42514 7.5993 4.83018 11.0586 3.72169C11.4129 3.60817 11.7756 3.51024 12.1463 3.42884Z" fill="#2A2E30"/>
<path d="M5.2185 22.1245C4.22536 20.8063 3.49322 19.2583 3.11608 17.5408C2.58897 15.1404 2.83029 12.7502 3.67582 10.6268M5.2185 22.1245L6.43722 21.123M5.2185 22.1245L6.22916 23.2973C8.99167 26.108 13.0947 27.4787 17.2281 26.5711C23.305 25.2366 27.2591 19.4579 26.4259 13.3988M6.43722 21.123C8.77406 24.2678 12.8152 25.9271 16.8902 25.0323C18.8497 24.602 20.5547 23.6388 21.8862 22.3282L20.7949 21.3599M6.43722 21.123C5.59673 19.9919 4.9767 18.6686 4.65486 17.203C4.19051 15.0883 4.41396 12.9828 5.17587 11.1199M5.17587 11.1199L3.67582 10.6268M5.17587 11.1199C6.29462 8.38443 8.5743 6.1719 11.5421 5.22123L11.0586 3.72169M3.67582 10.6268C4.95072 7.42514 7.5993 4.83018 11.0586 3.72169M11.0586 3.72169C11.4129 3.60817 11.7756 3.51024 12.1463 3.42884C18.5369 2.02555 24.855 6.06852 26.2583 12.4591C26.3272 12.7727 26.3829 13.0861 26.4259 13.3988M17.695 5.17698C21.1207 6.22939 23.8961 9.04702 24.7195 12.797C24.7749 13.0489 24.8204 13.3008 24.8565 13.5521M17.695 5.17698L17.2344 6.55776C15.8397 6.13556 14.3207 6.05386 12.7963 6.38862C11.3682 6.7022 10.0977 7.34555 9.04715 8.22111M17.695 5.17698C16.2563 4.73498 14.7028 4.60435 13.1311 4.84679M7.93123 9.33469C6.23761 11.3573 5.46629 14.1149 6.07586 16.8909C7.12021 21.6468 11.8222 24.6557 16.5782 23.6113C18.2252 23.2496 19.6627 22.4493 20.7949 21.3599M18.7169 7.15796C20.9721 8.31841 22.7121 10.4382 23.2986 13.109C23.9812 16.2179 22.932 19.3037 20.7949 21.3599M24.8565 13.5521L26.4259 13.3988M24.8565 13.5521C25.2465 16.2708 24.5232 18.9282 23.0065 21.0242" stroke="#D4EDF4" stroke-width="0.10584" stroke-linecap="round"/>
<path fill-rule="evenodd" clip-rule="evenodd" d="M12.2073 10.1325C12.2074 10.0741 12.1602 10.0257 12.1017 10.0244L10.2571 9.98471C10.1987 9.98346 10.1512 10.0298 10.151 10.0883L10.1464 12.0269C10.1462 12.0853 10.1935 12.1337 10.2519 12.135L12.0966 12.1747C12.155 12.1759 12.2025 12.1296 12.2026 12.0711L12.2073 10.1325Z" fill="#D4EDF4"/>
<path d="M21.1578 16.7207C21.1609 15.4384 20.3675 14.3406 19.2623 13.9446C19.2077 13.925 19.1757 13.8669 19.1895 13.8112C19.2477 13.5761 19.2852 13.3226 19.2859 13.0587C19.2897 11.4743 18.0511 10.1524 16.5321 10.1197L15.7848 10.1037C15.7263 10.1024 15.6791 10.054 15.6792 9.99554L15.6812 9.16277C15.6814 9.10431 15.6341 9.05591 15.5757 9.05465L13.7331 9.015C13.6747 9.01375 13.6272 9.06011 13.627 9.11857L13.6198 12.1016C13.6197 12.1601 13.667 12.2085 13.7254 12.2097L16.1291 12.2615C16.5148 12.2698 16.8275 12.6034 16.8265 13.0058C16.8256 13.4082 16.5113 13.7284 16.1255 13.7201L10.2484 13.5937C10.19 13.5924 10.1425 13.6388 10.1423 13.6972L10.1374 15.7542L10.1287 19.3632L10.1262 20.4006L12.0767 20.4426C12.1351 20.4438 12.1826 20.3975 12.1827 20.339L12.1934 15.9043C12.1935 15.8459 12.241 15.7995 12.2995 15.8008L18.001 15.9234C18.3868 15.9317 18.6994 16.2654 18.6985 16.6678C18.6975 17.0702 18.3833 17.3904 17.9975 17.3821L13.7132 17.2899C13.6547 17.2887 13.6072 17.335 13.6071 17.3935L13.5999 20.3695C13.5998 20.428 13.6471 20.4764 13.7055 20.4776L15.5481 20.5173C15.6065 20.5185 15.654 20.4722 15.6541 20.4137L15.6561 19.588C15.6563 19.5295 15.7038 19.4831 15.7622 19.4844L18.3901 19.5409C19.9091 19.5736 21.154 18.3177 21.1578 16.7207Z" fill="#D4EDF4"/>
</svg>
